<?xml version="1.0" encoding="iso-8859-1"?><!DOCTYPE svg PUBLIC "-//W3C//DTD SVG 1.1//EN" "http://www.w3.org/Graphics/SVG/1.1/DTD/svg11.dtd"><svg width="518" height="890" viewBox="0 0 518 890" xmlns="http://www.w3.org/2000/svg" xmlns:xlink="http://www.w3.org/1999/xlink"><svg viewBox="-3 -3 292.05 292.05" width="292.05" height="292.05" id="checked" xmlns="http://www.w3.org/2000/svg"><path d="M143.031 0C64.027 0 .004 64.04.004 143.027c0 78.996 64.031 143.027 143.027 143.027 78.987 0 143.018-64.031 143.018-143.027C286.049 64.049 222.018 0 143.031 0zm0 259.236c-64.183 0-116.209-52.026-116.209-116.209S78.857 26.818 143.031 26.818s116.2 52.026 116.2 116.209-52.025 116.209-116.2 116.209zm56.21-177.049c-6.079-3.629-13.847-1.475-17.342 4.827l-47.959 86.147-26.71-32.512c-4.836-5.569-11.263-8.456-17.333-4.827-6.079 3.638-8.591 12.39-4.657 18.004l37.169 45.241c2.78 3.611 5.953 5.775 9.27 6.392l.027.054.34.018c.751.116 11.979 2.19 16.815-6.463l55.048-98.876c3.493-6.313 1.411-14.367-4.668-18.005z" fill="#3db39e"/></svg><svg width="42" height="51" viewBox="-3 -3 42 51" id="loadMore" y="293" xmlns="http://www.w3.org/2000/svg"><g fill="#FFDE00"><path d="M28.266 7.925L26.05 10.28c4.73 3.051 7.479 8.64 6.545 14.483-.616 3.851-2.72 7.235-5.923 9.53a14.891 14.891 0 0 1-9.549 2.775l.586-.604c-.011-.001-.024.001-.035.001l2.218-2.289-2.048-1.923-4.398 4.542-.001-.002-1.898 1.96 2.047 1.921.001-.001L18.209 45l1.899-1.96-2.989-2.801c4.091.19 8.093-.979 11.449-3.383 3.9-2.793 6.461-6.913 7.211-11.601 1.106-6.924-2.033-13.557-7.513-17.33zM3.406 20.238c.616-3.851 2.72-7.235 5.923-9.53a14.891 14.891 0 0 1 9.549-2.775l-.585.604c.011.001.024-.001.035-.001l-2.218 2.289 2.048 1.923 4.398-4.542.001.002 1.898-1.96-2.047-1.921-.001.001L17.791 0l-1.899 1.96 2.989 2.801A18.127 18.127 0 0 0 7.432 8.144C3.532 10.937.971 15.057.221 19.745c-1.107 6.924 2.033 13.557 7.512 17.33l2.216-2.355c-4.728-3.051-7.477-8.64-6.543-14.482z"/></g></svg><svg viewBox="-3 -3 518 518" width="518" height="518" id="packing" y="344" xmlns="http://www.w3.org/2000/svg"><path fill="#f0dcbe" d="M255.999 27.194L39.674 127.036l216.325 99.842 216.326-99.842z"/><path d="M467.491 387.194L256 484.805V226.878l216.326-99.842v252.603a8.325 8.325 0 0 1-4.835 7.555z" fill="#ebd2af"/><path d="M44.507 387.194l211.492 97.611V226.878L39.674 127.036v252.602a8.323 8.323 0 0 0 4.833 7.556z" fill="#d2b493"/><path d="M472.325 127.036l-216.326 99.842 38.661 115.985c1.568 4.704 6.878 7.001 11.38 4.924l201.123-92.826a8.32 8.32 0 0 0 4.406-10.186l-39.244-117.739z" fill="#f0dcbe"/><path d="M39.674 127.036L256 226.878l-38.662 115.985c-1.568 4.704-6.878 7.001-11.38 4.924L4.835 254.96a8.32 8.32 0 0 1-4.406-10.186l39.245-117.738z" fill="#ebd2af"/><path fill="#d2b493" d="M472.325 127.036L255.999 27.194v199.684z"/></svg><svg width="27.57" height="27.57" viewBox="-3 -3 27.57 27.57" id="user" y="862" xmlns="http://www.w3.org/2000/svg"><path fill="#E7EDED" d="M7.901 16.912l-3.218 1.755c-.189.103-.359.23-.517.368a10.735 10.735 0 0 0 6.945 2.537c2.627 0 5.034-.94 6.905-2.501a2.852 2.852 0 0 0-.567-.38l-3.446-1.723a1.316 1.316 0 0 1-.727-1.175V14.44c.097-.11.208-.252.326-.419a7.903 7.903 0 0 0 1.071-2.159c.442-.136.768-.545.768-1.03V9.389c0-.317-.141-.601-.361-.8V6.503s.429-3.247-3.968-3.247-3.969 3.247-3.969 3.247V8.59c-.22.199-.361.482-.361.8v1.443c0 .38.2.715.499.908a7.169 7.169 0 0 0 1.305 2.7v1.319c0 .479-.263.922-.685 1.152z"/><path fill="#556180" d="M10.97.002C5.014-.1.103 4.646.002 10.601a10.75 10.75 0 0 0 3.844 8.43c.157-.137.325-.262.512-.364l3.218-1.755c.422-.23.685-.673.685-1.154V14.44s-.945-1.13-1.305-2.7a1.08 1.08 0 0 1-.499-.908V9.389c0-.317.141-.601.361-.8V6.503s-.429-3.247 3.968-3.247 3.968 3.247 3.968 3.247v2.086c.22.199.361.482.361.8v1.443c0 .485-.326.893-.768 1.03a7.945 7.945 0 0 1-1.071 2.159 5.067 5.067 0 0 1-.326.419v1.352c0 .498.281.953.727 1.175l3.446 1.723c.207.103.394.234.566.379a10.755 10.755 0 0 0 3.881-8.1C21.672 5.014 16.927.103 10.97.002z"/></svg></svg>